<svg width="23" height="22" viewBox="0 0 23 22" fill="none" xmlns="http://www.w3.org/2000/svg">
<path d="M3.5 12.4879L5.07465 18.7865C5.11893 18.9637 5.14107 19.0522 5.16727 19.1296C5.42317 19.8851 6.10352 20.4163 6.89852 20.4813C6.9799 20.4879 7.0712 20.4879 7.25379 20.4879C7.48244 20.4879 7.59677 20.4879 7.69308 20.4786C8.645 20.3863 9.39834 19.6329 9.49066 18.681C9.5 18.5847 9.5 18.4704 9.5 18.2417V3.98795M18 11.9879C19.933 11.9879 21.5 10.4209 21.5 8.48795C21.5 6.55495 19.933 4.98795 18 4.98795M9.75 3.98795H6C3.51472 3.98795 1.5 6.00267 1.5 8.48795C1.5 10.9732 3.51472 12.9879 6 12.9879H9.75C11.5164 12.9879 13.6772 13.9348 15.3443 14.8436C16.3168 15.3737 16.8031 15.6388 17.1216 15.5998C17.4169 15.5636 17.6402 15.431 17.8133 15.1891C18 14.9281 18 14.406 18 13.3617V3.61423C18 2.56994 18 2.0478 17.8133 1.78684C17.6402 1.54485 17.4169 1.41225 17.1216 1.37608C16.8031 1.33707 16.3168 1.60215 15.3443 2.1323C13.6772 3.04106 11.5164 3.98795 9.75 3.98795Z" stroke="#7B78AA" stroke-width="2" stroke-linecap="round" stroke-linejoin="round"/>
</svg>
