<svg width="25" height="25" viewBox="0 0 25 25" fill="none" xmlns="http://www.w3.org/2000/svg">
<path d="M6.5 13.488H2.5C2.23478 13.488 1.98043 13.5934 1.79289 13.7809C1.60536 13.9685 1.5 14.2228 1.5 14.488V22.488C1.5 22.7533 1.60536 23.0076 1.79289 23.1951C1.98043 23.3827 2.23478 23.488 2.5 23.488H6.5C6.76522 23.488 7.01957 23.3827 7.20711 23.1951C7.39464 23.0076 7.5 22.7533 7.5 22.488V14.488C7.5 14.2228 7.39464 13.9685 7.20711 13.7809C7.01957 13.5934 6.76522 13.488 6.5 13.488ZM5.5 21.488H3.5V15.488H5.5V21.488ZM22.5 9.48804H18.5C18.2348 9.48804 17.9804 9.59339 17.7929 9.78093C17.6054 9.96847 17.5 10.2228 17.5 10.488V22.488C17.5 22.7533 17.6054 23.0076 17.7929 23.1951C17.9804 23.3827 18.2348 23.488 18.5 23.488H22.5C22.7652 23.488 23.0196 23.3827 23.2071 23.1951C23.3946 23.0076 23.5 22.7533 23.5 22.488V10.488C23.5 10.2228 23.3946 9.96847 23.2071 9.78093C23.0196 9.59339 22.7652 9.48804 22.5 9.48804ZM21.5 21.488H19.5V11.488H21.5V21.488ZM14.5 1.48804H10.5C10.2348 1.48804 9.98043 1.59339 9.79289 1.78093C9.60536 1.96847 9.5 2.22282 9.5 2.48804V22.488C9.5 22.7533 9.60536 23.0076 9.79289 23.1951C9.98043 23.3827 10.2348 23.488 10.5 23.488H14.5C14.7652 23.488 15.0196 23.3827 15.2071 23.1951C15.3946 23.0076 15.5 22.7533 15.5 22.488V2.48804C15.5 2.22282 15.3946 1.96847 15.2071 1.78093C15.0196 1.59339 14.7652 1.48804 14.5 1.48804ZM13.5 21.488H11.5V3.48804H13.5V21.488Z" fill="#7B78AA"/>
</svg>
